%TF.GenerationSoftware,KiCad,Pcbnew,8.0.2*%
%TF.CreationDate,2024-08-23T15:35:12+02:00*%
%TF.ProjectId,CurrentLimiter2,43757272-656e-4744-9c69-6d6974657232,rev?*%
%TF.SameCoordinates,Original*%
%TF.FileFunction,Legend,Top*%
%TF.FilePolarity,Positive*%
%FSLAX46Y46*%
G04 Gerber Fmt 4.6, Leading zero omitted, Abs format (unit mm)*
G04 Created by KiCad (PCBNEW 8.0.2) date 2024-08-23 15:35:12*
%MOMM*%
%LPD*%
G01*
G04 APERTURE LIST*
%ADD10C,0.300000*%
%ADD11C,0.250000*%
%ADD12C,0.150000*%
%ADD13C,0.120000*%
G04 APERTURE END LIST*
D10*
G36*
X123490000Y-105683845D02*
G01*
X122974159Y-105831856D01*
X122974159Y-106895045D01*
X123490000Y-107041591D01*
X123490000Y-107995603D01*
X120488743Y-106860607D01*
X120488743Y-106361618D01*
X121255177Y-106361618D01*
X122317634Y-106693545D01*
X122317634Y-106027494D01*
X121255177Y-106361618D01*
X120488743Y-106361618D01*
X120488743Y-105842114D01*
X123490000Y-104707117D01*
X123490000Y-105683845D01*
G37*
G36*
X122505212Y-102983007D02*
G01*
X121801793Y-102983007D01*
X121801793Y-101540997D01*
X123019588Y-101540997D01*
X123108782Y-101668044D01*
X123203441Y-101814361D01*
X123284602Y-101953980D01*
X123352265Y-102086902D01*
X123414145Y-102233512D01*
X123428450Y-102273726D01*
X123470705Y-102418568D01*
X123502582Y-102574840D01*
X123524080Y-102742543D01*
X123534247Y-102895385D01*
X123536894Y-103029169D01*
X123532458Y-103192391D01*
X123519148Y-103345917D01*
X123491465Y-103517349D01*
X123451005Y-103674820D01*
X123397767Y-103818329D01*
X123355177Y-103906245D01*
X123267191Y-104047090D01*
X123162235Y-104173419D01*
X123040309Y-104285233D01*
X122901412Y-104382530D01*
X122814424Y-104431612D01*
X122675801Y-104494861D01*
X122529759Y-104545024D01*
X122376298Y-104582101D01*
X122215418Y-104606092D01*
X122047120Y-104616998D01*
X121989371Y-104617725D01*
X121839316Y-104612751D01*
X121667514Y-104593655D01*
X121504728Y-104560235D01*
X121350958Y-104512494D01*
X121206204Y-104450429D01*
X121137208Y-104414026D01*
X121007352Y-104330718D01*
X120889809Y-104234118D01*
X120784580Y-104124226D01*
X120691663Y-104001042D01*
X120611060Y-103864565D01*
X120586929Y-103816120D01*
X120530399Y-103671633D01*
X120487753Y-103506811D01*
X120462251Y-103349349D01*
X120446949Y-103176946D01*
X120441990Y-103021863D01*
X120441849Y-102989602D01*
X120444139Y-102839364D01*
X120452931Y-102675324D01*
X120468319Y-102529007D01*
X120494605Y-102380704D01*
X120535638Y-102240753D01*
X120603959Y-102093807D01*
X120692602Y-101963461D01*
X120801567Y-101849717D01*
X120825799Y-101828960D01*
X120944604Y-101743069D01*
X121080101Y-101670046D01*
X121232291Y-101609890D01*
X121324054Y-101582030D01*
X121473531Y-102482554D01*
X121340888Y-102551826D01*
X121235604Y-102663339D01*
X121230265Y-102671598D01*
X121169256Y-102812032D01*
X121146596Y-102959789D01*
X121145268Y-103010118D01*
X121161091Y-103172960D01*
X121208560Y-103316095D01*
X121287676Y-103439524D01*
X121345303Y-103499581D01*
X121476254Y-103587777D01*
X121623601Y-103641941D01*
X121776422Y-103670627D01*
X121925160Y-103681318D01*
X121978381Y-103682030D01*
X122141939Y-103675539D01*
X122309316Y-103651556D01*
X122451448Y-103609902D01*
X122582973Y-103540659D01*
X122636371Y-103497383D01*
X122731651Y-103382042D01*
X122795748Y-103243750D01*
X122828663Y-103082505D01*
X122833475Y-102983007D01*
X122825781Y-102830416D01*
X122802700Y-102684787D01*
X122764350Y-102541980D01*
X122711416Y-102392715D01*
X122697920Y-102358722D01*
X122505212Y-102358722D01*
X122505212Y-102983007D01*
G37*
G36*
X122767081Y-98223647D02*
G01*
X122915672Y-98262349D01*
X123040837Y-98319923D01*
X123163799Y-98404506D01*
X123267714Y-98508137D01*
X123345652Y-98618876D01*
X123403065Y-98755189D01*
X123436707Y-98902262D01*
X123447501Y-98973517D01*
X123468045Y-99133995D01*
X123484023Y-99284640D01*
X123490000Y-99391905D01*
X123490000Y-101003175D01*
X120488743Y-101003175D01*
X120488743Y-99649092D01*
X121098374Y-99649092D01*
X121098374Y-100061618D01*
X121614214Y-100061618D01*
X121614214Y-99655687D01*
X121609339Y-99587543D01*
X122176950Y-99587543D01*
X122176950Y-100061618D01*
X122786580Y-100061618D01*
X122786580Y-99585345D01*
X122776537Y-99436408D01*
X122734702Y-99295438D01*
X122701584Y-99245359D01*
X122579373Y-99162766D01*
X122472240Y-99146441D01*
X122326152Y-99184794D01*
X122258283Y-99244626D01*
X122197283Y-99379082D01*
X122178221Y-99528490D01*
X122176950Y-99587543D01*
X121609339Y-99587543D01*
X121603089Y-99500163D01*
X121550951Y-99357092D01*
X121546803Y-99351605D01*
X121417807Y-99272657D01*
X121350432Y-99265875D01*
X121206674Y-99310163D01*
X121165052Y-99351605D01*
X121111136Y-99487926D01*
X121098439Y-99635980D01*
X121098374Y-99649092D01*
X120488743Y-99649092D01*
X120488743Y-99255617D01*
X120496008Y-99098988D01*
X120522845Y-98934291D01*
X120569458Y-98789018D01*
X120646944Y-98646777D01*
X120695373Y-98585170D01*
X120804824Y-98482909D01*
X120942627Y-98402789D01*
X121095964Y-98359648D01*
X121206817Y-98351430D01*
X121359560Y-98367745D01*
X121498134Y-98416689D01*
X121622541Y-98498262D01*
X121645722Y-98518492D01*
X121742473Y-98635580D01*
X121809999Y-98767196D01*
X121838429Y-98843824D01*
X121885919Y-98691599D01*
X121956534Y-98546184D01*
X122045348Y-98428126D01*
X122114668Y-98364619D01*
X122246817Y-98283475D01*
X122398715Y-98232385D01*
X122552309Y-98212099D01*
X122607062Y-98210746D01*
X122767081Y-98223647D01*
G37*
D11*
X100902568Y-109364619D02*
X100902568Y-108364619D01*
X101378758Y-108697952D02*
X101378758Y-109364619D01*
X101378758Y-108793190D02*
X101426377Y-108745571D01*
X101426377Y-108745571D02*
X101521615Y-108697952D01*
X101521615Y-108697952D02*
X101664472Y-108697952D01*
X101664472Y-108697952D02*
X101759710Y-108745571D01*
X101759710Y-108745571D02*
X101807329Y-108840809D01*
X101807329Y-108840809D02*
X101807329Y-109364619D01*
X102283520Y-108983666D02*
X103045425Y-108983666D01*
X117973996Y-109269380D02*
X117926377Y-109317000D01*
X117926377Y-109317000D02*
X117783520Y-109364619D01*
X117783520Y-109364619D02*
X117688282Y-109364619D01*
X117688282Y-109364619D02*
X117545425Y-109317000D01*
X117545425Y-109317000D02*
X117450187Y-109221761D01*
X117450187Y-109221761D02*
X117402568Y-109126523D01*
X117402568Y-109126523D02*
X117354949Y-108936047D01*
X117354949Y-108936047D02*
X117354949Y-108793190D01*
X117354949Y-108793190D02*
X117402568Y-108602714D01*
X117402568Y-108602714D02*
X117450187Y-108507476D01*
X117450187Y-108507476D02*
X117545425Y-108412238D01*
X117545425Y-108412238D02*
X117688282Y-108364619D01*
X117688282Y-108364619D02*
X117783520Y-108364619D01*
X117783520Y-108364619D02*
X117926377Y-108412238D01*
X117926377Y-108412238D02*
X117973996Y-108459857D01*
X118831139Y-108697952D02*
X118831139Y-109364619D01*
X118402568Y-108697952D02*
X118402568Y-109221761D01*
X118402568Y-109221761D02*
X118450187Y-109317000D01*
X118450187Y-109317000D02*
X118545425Y-109364619D01*
X118545425Y-109364619D02*
X118688282Y-109364619D01*
X118688282Y-109364619D02*
X118783520Y-109317000D01*
X118783520Y-109317000D02*
X118831139Y-109269380D01*
X119307330Y-109364619D02*
X119307330Y-108697952D01*
X119307330Y-108888428D02*
X119354949Y-108793190D01*
X119354949Y-108793190D02*
X119402568Y-108745571D01*
X119402568Y-108745571D02*
X119497806Y-108697952D01*
X119497806Y-108697952D02*
X119593044Y-108697952D01*
X119926378Y-109364619D02*
X119926378Y-108697952D01*
X119926378Y-108888428D02*
X119973997Y-108793190D01*
X119973997Y-108793190D02*
X120021616Y-108745571D01*
X120021616Y-108745571D02*
X120116854Y-108697952D01*
X120116854Y-108697952D02*
X120212092Y-108697952D01*
X121021616Y-109364619D02*
X120545426Y-109364619D01*
X120545426Y-109364619D02*
X120545426Y-108364619D01*
X121354950Y-109364619D02*
X121354950Y-108697952D01*
X121354950Y-108364619D02*
X121307331Y-108412238D01*
X121307331Y-108412238D02*
X121354950Y-108459857D01*
X121354950Y-108459857D02*
X121402569Y-108412238D01*
X121402569Y-108412238D02*
X121354950Y-108364619D01*
X121354950Y-108364619D02*
X121354950Y-108459857D01*
X121831140Y-109364619D02*
X121831140Y-108697952D01*
X121831140Y-108793190D02*
X121878759Y-108745571D01*
X121878759Y-108745571D02*
X121973997Y-108697952D01*
X121973997Y-108697952D02*
X122116854Y-108697952D01*
X122116854Y-108697952D02*
X122212092Y-108745571D01*
X122212092Y-108745571D02*
X122259711Y-108840809D01*
X122259711Y-108840809D02*
X122259711Y-109364619D01*
X122259711Y-108840809D02*
X122307330Y-108745571D01*
X122307330Y-108745571D02*
X122402568Y-108697952D01*
X122402568Y-108697952D02*
X122545425Y-108697952D01*
X122545425Y-108697952D02*
X122640664Y-108745571D01*
X122640664Y-108745571D02*
X122688283Y-108840809D01*
X122688283Y-108840809D02*
X122688283Y-109364619D01*
X123116854Y-108459857D02*
X123164473Y-108412238D01*
X123164473Y-108412238D02*
X123259711Y-108364619D01*
X123259711Y-108364619D02*
X123497806Y-108364619D01*
X123497806Y-108364619D02*
X123593044Y-108412238D01*
X123593044Y-108412238D02*
X123640663Y-108459857D01*
X123640663Y-108459857D02*
X123688282Y-108555095D01*
X123688282Y-108555095D02*
X123688282Y-108650333D01*
X123688282Y-108650333D02*
X123640663Y-108793190D01*
X123640663Y-108793190D02*
X123069235Y-109364619D01*
X123069235Y-109364619D02*
X123688282Y-109364619D01*
X124021616Y-108697952D02*
X124259711Y-109364619D01*
X124259711Y-109364619D02*
X124497806Y-108697952D01*
X124831140Y-108459857D02*
X124878759Y-108412238D01*
X124878759Y-108412238D02*
X124973997Y-108364619D01*
X124973997Y-108364619D02*
X125212092Y-108364619D01*
X125212092Y-108364619D02*
X125307330Y-108412238D01*
X125307330Y-108412238D02*
X125354949Y-108459857D01*
X125354949Y-108459857D02*
X125402568Y-108555095D01*
X125402568Y-108555095D02*
X125402568Y-108650333D01*
X125402568Y-108650333D02*
X125354949Y-108793190D01*
X125354949Y-108793190D02*
X124783521Y-109364619D01*
X124783521Y-109364619D02*
X125402568Y-109364619D01*
X151093044Y-90864619D02*
X151283520Y-90864619D01*
X151283520Y-90864619D02*
X151378758Y-90912238D01*
X151378758Y-90912238D02*
X151473996Y-91007476D01*
X151473996Y-91007476D02*
X151521615Y-91197952D01*
X151521615Y-91197952D02*
X151521615Y-91531285D01*
X151521615Y-91531285D02*
X151473996Y-91721761D01*
X151473996Y-91721761D02*
X151378758Y-91817000D01*
X151378758Y-91817000D02*
X151283520Y-91864619D01*
X151283520Y-91864619D02*
X151093044Y-91864619D01*
X151093044Y-91864619D02*
X150997806Y-91817000D01*
X150997806Y-91817000D02*
X150902568Y-91721761D01*
X150902568Y-91721761D02*
X150854949Y-91531285D01*
X150854949Y-91531285D02*
X150854949Y-91197952D01*
X150854949Y-91197952D02*
X150902568Y-91007476D01*
X150902568Y-91007476D02*
X150997806Y-90912238D01*
X150997806Y-90912238D02*
X151093044Y-90864619D01*
X152378758Y-91197952D02*
X152378758Y-91864619D01*
X151950187Y-91197952D02*
X151950187Y-91721761D01*
X151950187Y-91721761D02*
X151997806Y-91817000D01*
X151997806Y-91817000D02*
X152093044Y-91864619D01*
X152093044Y-91864619D02*
X152235901Y-91864619D01*
X152235901Y-91864619D02*
X152331139Y-91817000D01*
X152331139Y-91817000D02*
X152378758Y-91769380D01*
X152712092Y-91197952D02*
X153093044Y-91197952D01*
X152854949Y-90864619D02*
X152854949Y-91721761D01*
X152854949Y-91721761D02*
X152902568Y-91817000D01*
X152902568Y-91817000D02*
X152997806Y-91864619D01*
X152997806Y-91864619D02*
X153093044Y-91864619D01*
X153426378Y-91483666D02*
X154188283Y-91483666D01*
X153807330Y-91864619D02*
X153807330Y-91102714D01*
X151093044Y-108364619D02*
X151283520Y-108364619D01*
X151283520Y-108364619D02*
X151378758Y-108412238D01*
X151378758Y-108412238D02*
X151473996Y-108507476D01*
X151473996Y-108507476D02*
X151521615Y-108697952D01*
X151521615Y-108697952D02*
X151521615Y-109031285D01*
X151521615Y-109031285D02*
X151473996Y-109221761D01*
X151473996Y-109221761D02*
X151378758Y-109317000D01*
X151378758Y-109317000D02*
X151283520Y-109364619D01*
X151283520Y-109364619D02*
X151093044Y-109364619D01*
X151093044Y-109364619D02*
X150997806Y-109317000D01*
X150997806Y-109317000D02*
X150902568Y-109221761D01*
X150902568Y-109221761D02*
X150854949Y-109031285D01*
X150854949Y-109031285D02*
X150854949Y-108697952D01*
X150854949Y-108697952D02*
X150902568Y-108507476D01*
X150902568Y-108507476D02*
X150997806Y-108412238D01*
X150997806Y-108412238D02*
X151093044Y-108364619D01*
X152378758Y-108697952D02*
X152378758Y-109364619D01*
X151950187Y-108697952D02*
X151950187Y-109221761D01*
X151950187Y-109221761D02*
X151997806Y-109317000D01*
X151997806Y-109317000D02*
X152093044Y-109364619D01*
X152093044Y-109364619D02*
X152235901Y-109364619D01*
X152235901Y-109364619D02*
X152331139Y-109317000D01*
X152331139Y-109317000D02*
X152378758Y-109269380D01*
X152712092Y-108697952D02*
X153093044Y-108697952D01*
X152854949Y-108364619D02*
X152854949Y-109221761D01*
X152854949Y-109221761D02*
X152902568Y-109317000D01*
X152902568Y-109317000D02*
X152997806Y-109364619D01*
X152997806Y-109364619D02*
X153093044Y-109364619D01*
X153426378Y-108983666D02*
X154188283Y-108983666D01*
X100947568Y-91864619D02*
X100947568Y-90864619D01*
X101423758Y-91197952D02*
X101423758Y-91864619D01*
X101423758Y-91293190D02*
X101471377Y-91245571D01*
X101471377Y-91245571D02*
X101566615Y-91197952D01*
X101566615Y-91197952D02*
X101709472Y-91197952D01*
X101709472Y-91197952D02*
X101804710Y-91245571D01*
X101804710Y-91245571D02*
X101852329Y-91340809D01*
X101852329Y-91340809D02*
X101852329Y-91864619D01*
X102328520Y-91483666D02*
X103090425Y-91483666D01*
X102709472Y-91864619D02*
X102709472Y-91102714D01*
D12*
X138550057Y-100320238D02*
X138502438Y-100415476D01*
X138502438Y-100415476D02*
X138407200Y-100510714D01*
X138407200Y-100510714D02*
X138264342Y-100653571D01*
X138264342Y-100653571D02*
X138216723Y-100748809D01*
X138216723Y-100748809D02*
X138216723Y-100844047D01*
X138454819Y-100796428D02*
X138407200Y-100891666D01*
X138407200Y-100891666D02*
X138311961Y-100986904D01*
X138311961Y-100986904D02*
X138121485Y-101034523D01*
X138121485Y-101034523D02*
X137788152Y-101034523D01*
X137788152Y-101034523D02*
X137597676Y-100986904D01*
X137597676Y-100986904D02*
X137502438Y-100891666D01*
X137502438Y-100891666D02*
X137454819Y-100796428D01*
X137454819Y-100796428D02*
X137454819Y-100605952D01*
X137454819Y-100605952D02*
X137502438Y-100510714D01*
X137502438Y-100510714D02*
X137597676Y-100415476D01*
X137597676Y-100415476D02*
X137788152Y-100367857D01*
X137788152Y-100367857D02*
X138121485Y-100367857D01*
X138121485Y-100367857D02*
X138311961Y-100415476D01*
X138311961Y-100415476D02*
X138407200Y-100510714D01*
X138407200Y-100510714D02*
X138454819Y-100605952D01*
X138454819Y-100605952D02*
X138454819Y-100796428D01*
X137550057Y-99986904D02*
X137502438Y-99939285D01*
X137502438Y-99939285D02*
X137454819Y-99844047D01*
X137454819Y-99844047D02*
X137454819Y-99605952D01*
X137454819Y-99605952D02*
X137502438Y-99510714D01*
X137502438Y-99510714D02*
X137550057Y-99463095D01*
X137550057Y-99463095D02*
X137645295Y-99415476D01*
X137645295Y-99415476D02*
X137740533Y-99415476D01*
X137740533Y-99415476D02*
X137883390Y-99463095D01*
X137883390Y-99463095D02*
X138454819Y-100034523D01*
X138454819Y-100034523D02*
X138454819Y-99415476D01*
X144166666Y-90954819D02*
X144166666Y-91669104D01*
X144166666Y-91669104D02*
X144119047Y-91811961D01*
X144119047Y-91811961D02*
X144023809Y-91907200D01*
X144023809Y-91907200D02*
X143880952Y-91954819D01*
X143880952Y-91954819D02*
X143785714Y-91954819D01*
X144595238Y-91050057D02*
X144642857Y-91002438D01*
X144642857Y-91002438D02*
X144738095Y-90954819D01*
X144738095Y-90954819D02*
X144976190Y-90954819D01*
X144976190Y-90954819D02*
X145071428Y-91002438D01*
X145071428Y-91002438D02*
X145119047Y-91050057D01*
X145119047Y-91050057D02*
X145166666Y-91145295D01*
X145166666Y-91145295D02*
X145166666Y-91240533D01*
X145166666Y-91240533D02*
X145119047Y-91383390D01*
X145119047Y-91383390D02*
X144547619Y-91954819D01*
X144547619Y-91954819D02*
X145166666Y-91954819D01*
X139833333Y-91954819D02*
X139500000Y-91478628D01*
X139261905Y-91954819D02*
X139261905Y-90954819D01*
X139261905Y-90954819D02*
X139642857Y-90954819D01*
X139642857Y-90954819D02*
X139738095Y-91002438D01*
X139738095Y-91002438D02*
X139785714Y-91050057D01*
X139785714Y-91050057D02*
X139833333Y-91145295D01*
X139833333Y-91145295D02*
X139833333Y-91288152D01*
X139833333Y-91288152D02*
X139785714Y-91383390D01*
X139785714Y-91383390D02*
X139738095Y-91431009D01*
X139738095Y-91431009D02*
X139642857Y-91478628D01*
X139642857Y-91478628D02*
X139261905Y-91478628D01*
X140785714Y-91954819D02*
X140214286Y-91954819D01*
X140500000Y-91954819D02*
X140500000Y-90954819D01*
X140500000Y-90954819D02*
X140404762Y-91097676D01*
X140404762Y-91097676D02*
X140309524Y-91192914D01*
X140309524Y-91192914D02*
X140214286Y-91240533D01*
X110166666Y-90954819D02*
X110166666Y-91669104D01*
X110166666Y-91669104D02*
X110119047Y-91811961D01*
X110119047Y-91811961D02*
X110023809Y-91907200D01*
X110023809Y-91907200D02*
X109880952Y-91954819D01*
X109880952Y-91954819D02*
X109785714Y-91954819D01*
X111166666Y-91954819D02*
X110595238Y-91954819D01*
X110880952Y-91954819D02*
X110880952Y-90954819D01*
X110880952Y-90954819D02*
X110785714Y-91097676D01*
X110785714Y-91097676D02*
X110690476Y-91192914D01*
X110690476Y-91192914D02*
X110595238Y-91240533D01*
X124833333Y-95954819D02*
X124500000Y-95478628D01*
X124261905Y-95954819D02*
X124261905Y-94954819D01*
X124261905Y-94954819D02*
X124642857Y-94954819D01*
X124642857Y-94954819D02*
X124738095Y-95002438D01*
X124738095Y-95002438D02*
X124785714Y-95050057D01*
X124785714Y-95050057D02*
X124833333Y-95145295D01*
X124833333Y-95145295D02*
X124833333Y-95288152D01*
X124833333Y-95288152D02*
X124785714Y-95383390D01*
X124785714Y-95383390D02*
X124738095Y-95431009D01*
X124738095Y-95431009D02*
X124642857Y-95478628D01*
X124642857Y-95478628D02*
X124261905Y-95478628D01*
X125166667Y-94954819D02*
X125785714Y-94954819D01*
X125785714Y-94954819D02*
X125452381Y-95335771D01*
X125452381Y-95335771D02*
X125595238Y-95335771D01*
X125595238Y-95335771D02*
X125690476Y-95383390D01*
X125690476Y-95383390D02*
X125738095Y-95431009D01*
X125738095Y-95431009D02*
X125785714Y-95526247D01*
X125785714Y-95526247D02*
X125785714Y-95764342D01*
X125785714Y-95764342D02*
X125738095Y-95859580D01*
X125738095Y-95859580D02*
X125690476Y-95907200D01*
X125690476Y-95907200D02*
X125595238Y-95954819D01*
X125595238Y-95954819D02*
X125309524Y-95954819D01*
X125309524Y-95954819D02*
X125214286Y-95907200D01*
X125214286Y-95907200D02*
X125166667Y-95859580D01*
X127333333Y-91454819D02*
X127000000Y-90978628D01*
X126761905Y-91454819D02*
X126761905Y-90454819D01*
X126761905Y-90454819D02*
X127142857Y-90454819D01*
X127142857Y-90454819D02*
X127238095Y-90502438D01*
X127238095Y-90502438D02*
X127285714Y-90550057D01*
X127285714Y-90550057D02*
X127333333Y-90645295D01*
X127333333Y-90645295D02*
X127333333Y-90788152D01*
X127333333Y-90788152D02*
X127285714Y-90883390D01*
X127285714Y-90883390D02*
X127238095Y-90931009D01*
X127238095Y-90931009D02*
X127142857Y-90978628D01*
X127142857Y-90978628D02*
X126761905Y-90978628D01*
X127714286Y-90550057D02*
X127761905Y-90502438D01*
X127761905Y-90502438D02*
X127857143Y-90454819D01*
X127857143Y-90454819D02*
X128095238Y-90454819D01*
X128095238Y-90454819D02*
X128190476Y-90502438D01*
X128190476Y-90502438D02*
X128238095Y-90550057D01*
X128238095Y-90550057D02*
X128285714Y-90645295D01*
X128285714Y-90645295D02*
X128285714Y-90740533D01*
X128285714Y-90740533D02*
X128238095Y-90883390D01*
X128238095Y-90883390D02*
X127666667Y-91454819D01*
X127666667Y-91454819D02*
X128285714Y-91454819D01*
X117904761Y-101550057D02*
X117809523Y-101502438D01*
X117809523Y-101502438D02*
X117714285Y-101407200D01*
X117714285Y-101407200D02*
X117571428Y-101264342D01*
X117571428Y-101264342D02*
X117476190Y-101216723D01*
X117476190Y-101216723D02*
X117380952Y-101216723D01*
X117428571Y-101454819D02*
X117333333Y-101407200D01*
X117333333Y-101407200D02*
X117238095Y-101311961D01*
X117238095Y-101311961D02*
X117190476Y-101121485D01*
X117190476Y-101121485D02*
X117190476Y-100788152D01*
X117190476Y-100788152D02*
X117238095Y-100597676D01*
X117238095Y-100597676D02*
X117333333Y-100502438D01*
X117333333Y-100502438D02*
X117428571Y-100454819D01*
X117428571Y-100454819D02*
X117619047Y-100454819D01*
X117619047Y-100454819D02*
X117714285Y-100502438D01*
X117714285Y-100502438D02*
X117809523Y-100597676D01*
X117809523Y-100597676D02*
X117857142Y-100788152D01*
X117857142Y-100788152D02*
X117857142Y-101121485D01*
X117857142Y-101121485D02*
X117809523Y-101311961D01*
X117809523Y-101311961D02*
X117714285Y-101407200D01*
X117714285Y-101407200D02*
X117619047Y-101454819D01*
X117619047Y-101454819D02*
X117428571Y-101454819D01*
X118809523Y-101454819D02*
X118238095Y-101454819D01*
X118523809Y-101454819D02*
X118523809Y-100454819D01*
X118523809Y-100454819D02*
X118428571Y-100597676D01*
X118428571Y-100597676D02*
X118333333Y-100692914D01*
X118333333Y-100692914D02*
X118238095Y-100740533D01*
D13*
%TO.C,Q2*%
X136950000Y-96915000D02*
X136680000Y-96915000D01*
X130050000Y-96915000D02*
X130320000Y-96915000D01*
X136950000Y-103335000D02*
X136950000Y-96915000D01*
X130050000Y-103335000D02*
X130050000Y-96915000D01*
X136970000Y-95735000D02*
X136640000Y-95495000D01*
X136970000Y-95255000D01*
X136970000Y-95735000D01*
G36*
X136970000Y-95735000D02*
G01*
X136640000Y-95495000D01*
X136970000Y-95255000D01*
X136970000Y-95735000D01*
G37*
%TO.C,J2*%
X143795000Y-92440000D02*
X154215000Y-92440000D01*
X143795000Y-107560000D02*
X143795000Y-92440000D01*
X143795000Y-107560000D02*
X154215000Y-107560000D01*
X143854000Y-95000000D02*
X144854000Y-95000000D01*
X143854000Y-97500000D02*
X143854000Y-95000000D01*
X143854000Y-97500000D02*
X144854000Y-97500000D01*
X143854000Y-102500000D02*
X144854000Y-102500000D01*
X143854000Y-105000000D02*
X143854000Y-102500000D01*
X143854000Y-105000000D02*
X144854000Y-105000000D01*
X144854000Y-97500000D02*
X144854000Y-95000000D01*
X144854000Y-105000000D02*
X144854000Y-102500000D01*
X145854000Y-107560000D02*
X145854000Y-92440000D01*
X152955000Y-107560000D02*
X152955000Y-92440000D01*
X153555000Y-107560000D02*
X153555000Y-92440000D01*
X153615000Y-107800000D02*
X154455000Y-107800000D01*
X154215000Y-107560000D02*
X154215000Y-92440000D01*
X154455000Y-107800000D02*
X154455000Y-107200000D01*
X147671047Y-104539089D02*
G75*
G02*
X147671000Y-102961000I1483948J789089D01*
G01*
X148365911Y-102266047D02*
G75*
G02*
X149944000Y-102266000I789089J-1483953D01*
G01*
X149944089Y-105233953D02*
G75*
G02*
X148366000Y-105234000I-789089J1483948D01*
G01*
X150638352Y-102961288D02*
G75*
G02*
X150835000Y-103750000I-1483352J-788712D01*
G01*
X150835450Y-103720617D02*
G75*
G02*
X150639000Y-104539000I-1680445J-29385D01*
G01*
X150835000Y-96250000D02*
G75*
G02*
X147475000Y-96250000I-1680000J0D01*
G01*
X147475000Y-96250000D02*
G75*
G02*
X150835000Y-96250000I1680000J0D01*
G01*
%TO.C,R1*%
X140227064Y-92265000D02*
X139772936Y-92265000D01*
X140227064Y-93735000D02*
X139772936Y-93735000D01*
%TO.C,J1*%
X100545000Y-92200000D02*
X100545000Y-92800000D01*
X100785000Y-92440000D02*
X100785000Y-107560000D01*
X101385000Y-92200000D02*
X100545000Y-92200000D01*
X101445000Y-92440000D02*
X101445000Y-107560000D01*
X102045000Y-92440000D02*
X102045000Y-107560000D01*
X109146000Y-92440000D02*
X109146000Y-107560000D01*
X110146000Y-95000000D02*
X110146000Y-97500000D01*
X110146000Y-102500000D02*
X110146000Y-105000000D01*
X111146000Y-95000000D02*
X110146000Y-95000000D01*
X111146000Y-95000000D02*
X111146000Y-97500000D01*
X111146000Y-97500000D02*
X110146000Y-97500000D01*
X111146000Y-102500000D02*
X110146000Y-102500000D01*
X111146000Y-102500000D02*
X111146000Y-105000000D01*
X111146000Y-105000000D02*
X110146000Y-105000000D01*
X111205000Y-92440000D02*
X100785000Y-92440000D01*
X111205000Y-92440000D02*
X111205000Y-107560000D01*
X111205000Y-107560000D02*
X100785000Y-107560000D01*
X104164550Y-96279383D02*
G75*
G02*
X104361000Y-95461000I1680445J29385D01*
G01*
X104361648Y-97038712D02*
G75*
G02*
X104165000Y-96250000I1483352J788712D01*
G01*
X105055911Y-94766047D02*
G75*
G02*
X106634000Y-94766000I789089J-1483948D01*
G01*
X106634089Y-97733953D02*
G75*
G02*
X105056000Y-97734000I-789089J1483953D01*
G01*
X107328953Y-95460911D02*
G75*
G02*
X107329000Y-97039000I-1483948J-789089D01*
G01*
X107525000Y-103750000D02*
G75*
G02*
X104165000Y-103750000I-1680000J0D01*
G01*
X104165000Y-103750000D02*
G75*
G02*
X107525000Y-103750000I1680000J0D01*
G01*
%TO.C,R3*%
X121140000Y-92972936D02*
X121140000Y-96027064D01*
X123860000Y-92972936D02*
X123860000Y-96027064D01*
%TO.C,R2*%
X128227064Y-92090000D02*
X126772936Y-92090000D01*
X128227064Y-93910000D02*
X126772936Y-93910000D01*
%TO.C,Q1*%
X112090000Y-93590000D02*
X113350000Y-93590000D01*
X112090000Y-97350000D02*
X112090000Y-93590000D01*
X118910000Y-93590000D02*
X117650000Y-93590000D01*
X118910000Y-97350000D02*
X118910000Y-93590000D01*
X112190000Y-98630000D02*
X111860000Y-98870000D01*
X111860000Y-98390000D01*
X112190000Y-98630000D01*
G36*
X112190000Y-98630000D02*
G01*
X111860000Y-98870000D01*
X111860000Y-98390000D01*
X112190000Y-98630000D01*
G37*
%TD*%
M02*
