%TF.GenerationSoftware,KiCad,Pcbnew,8.0.2*%
%TF.CreationDate,2024-08-23T15:35:12+02:00*%
%TF.ProjectId,CurrentLimiter2,43757272-656e-4744-9c69-6d6974657232,rev?*%
%TF.SameCoordinates,Original*%
%TF.FileFunction,Copper,L2,Bot*%
%TF.FilePolarity,Positive*%
%FSLAX46Y46*%
G04 Gerber Fmt 4.6, Leading zero omitted, Abs format (unit mm)*
G04 Created by KiCad (PCBNEW 8.0.2) date 2024-08-23 15:35:12*
%MOMM*%
%LPD*%
G01*
G04 APERTURE LIST*
%TA.AperFunction,ComponentPad*%
%ADD10R,2.500000X2.500000*%
%TD*%
%TA.AperFunction,ComponentPad*%
%ADD11C,2.500000*%
%TD*%
%TA.AperFunction,ViaPad*%
%ADD12C,0.600000*%
%TD*%
%TA.AperFunction,ViaPad*%
%ADD13C,1.000000*%
%TD*%
%TA.AperFunction,Conductor*%
%ADD14C,1.000000*%
%TD*%
%TA.AperFunction,Conductor*%
%ADD15C,0.500000*%
%TD*%
G04 APERTURE END LIST*
D10*
%TO.P,J2,1,Pin_1*%
%TO.N,/Col*%
X149155000Y-103750000D03*
D11*
%TO.P,J2,2,Pin_2*%
%TO.N,Net-(J1-Pin_1)*%
X149155000Y-96250000D03*
%TD*%
D10*
%TO.P,J1,1,Pin_1*%
%TO.N,Net-(J1-Pin_1)*%
X105845000Y-96250000D03*
D11*
%TO.P,J1,2,Pin_2*%
%TO.N,Net-(J1-Pin_2)*%
X105845000Y-103750000D03*
%TD*%
D12*
%TO.N,Net-(Q1-C)*%
X111500000Y-92500000D03*
X116000000Y-96500000D03*
D13*
%TO.N,/Col*%
X132000000Y-97500000D03*
X132000000Y-106000000D03*
X141000000Y-109000000D03*
X126000000Y-106000000D03*
X132000000Y-103000000D03*
X141000000Y-100000000D03*
X129000000Y-109000000D03*
X129000000Y-103000000D03*
X135000000Y-103000000D03*
X138000000Y-109000000D03*
X138000000Y-100000000D03*
X126000000Y-100000000D03*
X135000000Y-109000000D03*
X132000000Y-100000000D03*
X135000000Y-100000000D03*
X141000000Y-106000000D03*
X126000000Y-109000000D03*
X138000000Y-106000000D03*
X129000000Y-106000000D03*
X141000000Y-103000000D03*
X129000000Y-100000000D03*
X135000000Y-97500000D03*
X126000000Y-103000000D03*
X126000000Y-97500000D03*
X129000000Y-97500000D03*
X132000000Y-109000000D03*
X138000000Y-97500000D03*
X135000000Y-106000000D03*
X138000000Y-103000000D03*
X141000000Y-97500000D03*
D12*
%TO.N,Net-(Q1-E)*%
X129000000Y-95000000D03*
X112500000Y-100500000D03*
%TD*%
D14*
%TO.N,Net-(J1-Pin_1)*%
X149155000Y-94155000D02*
X149155000Y-96250000D01*
X105845000Y-96250000D02*
X105845000Y-93655000D01*
X146000000Y-91000000D02*
X149155000Y-94155000D01*
X108500000Y-91000000D02*
X146000000Y-91000000D01*
X105845000Y-93655000D02*
X108500000Y-91000000D01*
D15*
%TO.N,Net-(Q1-C)*%
X112500000Y-92500000D02*
X111500000Y-92500000D01*
X116000000Y-96000000D02*
X112500000Y-92500000D01*
X116000000Y-96500000D02*
X116000000Y-96000000D01*
%TO.N,Net-(Q1-E)*%
X112500000Y-98500000D02*
X113000000Y-98000000D01*
X123500000Y-96500000D02*
X125000000Y-95000000D01*
X112500000Y-100500000D02*
X112500000Y-98500000D01*
X113000000Y-98000000D02*
X122000000Y-98000000D01*
X125000000Y-95000000D02*
X129000000Y-95000000D01*
X122000000Y-98000000D02*
X123500000Y-96500000D01*
%TD*%
%TA.AperFunction,Conductor*%
%TO.N,/Col*%
G36*
X107352257Y-90520185D02*
G01*
X107398012Y-90572989D01*
X107407956Y-90642147D01*
X107378931Y-90705703D01*
X107372900Y-90712179D01*
X105207221Y-92877858D01*
X105207218Y-92877861D01*
X105137538Y-92947540D01*
X105067859Y-93017219D01*
X104958371Y-93181079D01*
X104958364Y-93181092D01*
X104882950Y-93363160D01*
X104882947Y-93363170D01*
X104844500Y-93556456D01*
X104844500Y-94375500D01*
X104824815Y-94442539D01*
X104772011Y-94488294D01*
X104720501Y-94499500D01*
X104547130Y-94499500D01*
X104547123Y-94499501D01*
X104487516Y-94505908D01*
X104352671Y-94556202D01*
X104352664Y-94556206D01*
X104237455Y-94642452D01*
X104237452Y-94642455D01*
X104151206Y-94757664D01*
X104151202Y-94757671D01*
X104100908Y-94892517D01*
X104094501Y-94952116D01*
X104094501Y-94952123D01*
X104094500Y-94952135D01*
X104094500Y-97547870D01*
X104094501Y-97547876D01*
X104100908Y-97607483D01*
X104151202Y-97742328D01*
X104151206Y-97742335D01*
X104237452Y-97857544D01*
X104237455Y-97857547D01*
X104352664Y-97943793D01*
X104352671Y-97943797D01*
X104487517Y-97994091D01*
X104487516Y-97994091D01*
X104494444Y-97994835D01*
X104547127Y-98000500D01*
X107142872Y-98000499D01*
X107202483Y-97994091D01*
X107337331Y-97943796D01*
X107452546Y-97857546D01*
X107538796Y-97742331D01*
X107589091Y-97607483D01*
X107595500Y-97547873D01*
X107595499Y-94952128D01*
X107589091Y-94892517D01*
X107583514Y-94877565D01*
X107538797Y-94757671D01*
X107538793Y-94757664D01*
X107452547Y-94642455D01*
X107452544Y-94642452D01*
X107337335Y-94556206D01*
X107337328Y-94556202D01*
X107202482Y-94505908D01*
X107202483Y-94505908D01*
X107142883Y-94499501D01*
X107142881Y-94499500D01*
X107142873Y-94499500D01*
X107142865Y-94499500D01*
X106969500Y-94499500D01*
X106902461Y-94479815D01*
X106856706Y-94427011D01*
X106845500Y-94375500D01*
X106845500Y-94120782D01*
X106865185Y-94053743D01*
X106881819Y-94033101D01*
X108878101Y-92036819D01*
X108939424Y-92003334D01*
X108965782Y-92000500D01*
X110651928Y-92000500D01*
X110718967Y-92020185D01*
X110764722Y-92072989D01*
X110774666Y-92142147D01*
X110768970Y-92165454D01*
X110714632Y-92320742D01*
X110714630Y-92320750D01*
X110694435Y-92499996D01*
X110694435Y-92500003D01*
X110714630Y-92679249D01*
X110714631Y-92679254D01*
X110774211Y-92849523D01*
X110792018Y-92877862D01*
X110870184Y-93002262D01*
X110997738Y-93129816D01*
X111150478Y-93225789D01*
X111320745Y-93285368D01*
X111320750Y-93285369D01*
X111499996Y-93305565D01*
X111500000Y-93305565D01*
X111500004Y-93305565D01*
X111679249Y-93285369D01*
X111679252Y-93285368D01*
X111679255Y-93285368D01*
X111759017Y-93257457D01*
X111799972Y-93250500D01*
X112137770Y-93250500D01*
X112204809Y-93270185D01*
X112225451Y-93286819D01*
X115176937Y-96238304D01*
X115210422Y-96299627D01*
X115212476Y-96339868D01*
X115194435Y-96499995D01*
X115194435Y-96500003D01*
X115214630Y-96679249D01*
X115214631Y-96679254D01*
X115274211Y-96849523D01*
X115370184Y-97002262D01*
X115405741Y-97037819D01*
X115439226Y-97099142D01*
X115434242Y-97168834D01*
X115392370Y-97224767D01*
X115326906Y-97249184D01*
X115318060Y-97249500D01*
X112926080Y-97249500D01*
X112781092Y-97278340D01*
X112781086Y-97278342D01*
X112644508Y-97334914D01*
X112644496Y-97334921D01*
X112595269Y-97367813D01*
X112521588Y-97417044D01*
X112521580Y-97417050D01*
X111917050Y-98021580D01*
X111917044Y-98021588D01*
X111867812Y-98095268D01*
X111867813Y-98095269D01*
X111834921Y-98144496D01*
X111834914Y-98144508D01*
X111778342Y-98281086D01*
X111778340Y-98281092D01*
X111749500Y-98426079D01*
X111749500Y-100200028D01*
X111742542Y-100240982D01*
X111714631Y-100320747D01*
X111694435Y-100499996D01*
X111694435Y-100500003D01*
X111714630Y-100679249D01*
X111714631Y-100679254D01*
X111774211Y-100849523D01*
X111870184Y-101002262D01*
X111997738Y-101129816D01*
X112150478Y-101225789D01*
X112320745Y-101285368D01*
X112320750Y-101285369D01*
X112499996Y-101305565D01*
X112500000Y-101305565D01*
X112500004Y-101305565D01*
X112679249Y-101285369D01*
X112679252Y-101285368D01*
X112679255Y-101285368D01*
X112849522Y-101225789D01*
X113002262Y-101129816D01*
X113129816Y-101002262D01*
X113225789Y-100849522D01*
X113285368Y-100679255D01*
X113305565Y-100500000D01*
X113285368Y-100320745D01*
X113257458Y-100240982D01*
X113250500Y-100200028D01*
X113250500Y-98874500D01*
X113270185Y-98807461D01*
X113322989Y-98761706D01*
X113374500Y-98750500D01*
X122073920Y-98750500D01*
X122171462Y-98731096D01*
X122218913Y-98721658D01*
X122355495Y-98665084D01*
X122404729Y-98632186D01*
X122478416Y-98582952D01*
X123968206Y-97093159D01*
X123968211Y-97093156D01*
X123978414Y-97082952D01*
X123978416Y-97082952D01*
X125274548Y-95786818D01*
X125335871Y-95753334D01*
X125362229Y-95750500D01*
X128700028Y-95750500D01*
X128740983Y-95757458D01*
X128820745Y-95785368D01*
X128820750Y-95785369D01*
X128999996Y-95805565D01*
X129000000Y-95805565D01*
X129000004Y-95805565D01*
X129179249Y-95785369D01*
X129179252Y-95785368D01*
X129179255Y-95785368D01*
X129349522Y-95725789D01*
X129502262Y-95629816D01*
X129629816Y-95502262D01*
X129725789Y-95349522D01*
X129785368Y-95179255D01*
X129785369Y-95179249D01*
X129805565Y-95000003D01*
X129805565Y-94999996D01*
X129785369Y-94820750D01*
X129785368Y-94820745D01*
X129725788Y-94650476D01*
X129634950Y-94505909D01*
X129629816Y-94497738D01*
X129502262Y-94370184D01*
X129446138Y-94334919D01*
X129349523Y-94274211D01*
X129179254Y-94214631D01*
X129179249Y-94214630D01*
X129000004Y-94194435D01*
X128999996Y-94194435D01*
X128820750Y-94214630D01*
X128820745Y-94214631D01*
X128740983Y-94242542D01*
X128700028Y-94249500D01*
X124926080Y-94249500D01*
X124781092Y-94278340D01*
X124781082Y-94278343D01*
X124644511Y-94334912D01*
X124644498Y-94334919D01*
X124521584Y-94417048D01*
X124521580Y-94417051D01*
X121725451Y-97213181D01*
X121664128Y-97246666D01*
X121637770Y-97249500D01*
X116681940Y-97249500D01*
X116614901Y-97229815D01*
X116569146Y-97177011D01*
X116559202Y-97107853D01*
X116588227Y-97044297D01*
X116594259Y-97037819D01*
X116629816Y-97002262D01*
X116725789Y-96849522D01*
X116785368Y-96679255D01*
X116804255Y-96511630D01*
X116805565Y-96500003D01*
X116805565Y-96499996D01*
X116792100Y-96380496D01*
X116785368Y-96320745D01*
X116757458Y-96240982D01*
X116750500Y-96200028D01*
X116750500Y-95926079D01*
X116721659Y-95781092D01*
X116721658Y-95781091D01*
X116721658Y-95781087D01*
X116711871Y-95757458D01*
X116665087Y-95644511D01*
X116665080Y-95644498D01*
X116582952Y-95521585D01*
X116549723Y-95488356D01*
X116478416Y-95417049D01*
X113273549Y-92212181D01*
X113240064Y-92150858D01*
X113245048Y-92081166D01*
X113286920Y-92025233D01*
X113352384Y-92000816D01*
X113361230Y-92000500D01*
X145534218Y-92000500D01*
X145601257Y-92020185D01*
X145621899Y-92036819D01*
X148118181Y-94533101D01*
X148151666Y-94594424D01*
X148154500Y-94620782D01*
X148154500Y-94747956D01*
X148134815Y-94814995D01*
X148100354Y-94850408D01*
X148060523Y-94877565D01*
X147868198Y-95056014D01*
X147704614Y-95261143D01*
X147573432Y-95488356D01*
X147477582Y-95732578D01*
X147477576Y-95732597D01*
X147419197Y-95988374D01*
X147419196Y-95988379D01*
X147399592Y-96249995D01*
X147399592Y-96250004D01*
X147419196Y-96511620D01*
X147419197Y-96511625D01*
X147477576Y-96767402D01*
X147477578Y-96767411D01*
X147477580Y-96767416D01*
X147573432Y-97011643D01*
X147704614Y-97238857D01*
X147781217Y-97334914D01*
X147868198Y-97443985D01*
X147980163Y-97547872D01*
X148060521Y-97622433D01*
X148277296Y-97770228D01*
X148277301Y-97770230D01*
X148277302Y-97770231D01*
X148277303Y-97770232D01*
X148402843Y-97830688D01*
X148513673Y-97884061D01*
X148513674Y-97884061D01*
X148513677Y-97884063D01*
X148764385Y-97961396D01*
X149023818Y-98000500D01*
X149286182Y-98000500D01*
X149545615Y-97961396D01*
X149796323Y-97884063D01*
X150032704Y-97770228D01*
X150249479Y-97622433D01*
X150441805Y-97443981D01*
X150605386Y-97238857D01*
X150736568Y-97011643D01*
X150832420Y-96767416D01*
X150890802Y-96511630D01*
X150890803Y-96511620D01*
X150910408Y-96250004D01*
X150910408Y-96249995D01*
X150890803Y-95988379D01*
X150890802Y-95988374D01*
X150890802Y-95988370D01*
X150832420Y-95732584D01*
X150736568Y-95488357D01*
X150605386Y-95261143D01*
X150441805Y-95056019D01*
X150441804Y-95056018D01*
X150441801Y-95056014D01*
X150265590Y-94892516D01*
X150249479Y-94877567D01*
X150248064Y-94876602D01*
X150209646Y-94850408D01*
X150165345Y-94796378D01*
X150155500Y-94747956D01*
X150155500Y-94056456D01*
X150117052Y-93863170D01*
X150117051Y-93863169D01*
X150117051Y-93863165D01*
X150117049Y-93863160D01*
X150041635Y-93681092D01*
X150041628Y-93681079D01*
X149932139Y-93517218D01*
X149932136Y-93517214D01*
X149789686Y-93374764D01*
X149789655Y-93374735D01*
X147127101Y-90712181D01*
X147093616Y-90650858D01*
X147098600Y-90581166D01*
X147140472Y-90525233D01*
X147205936Y-90500816D01*
X147214782Y-90500500D01*
X154375500Y-90500500D01*
X154442539Y-90520185D01*
X154488294Y-90572989D01*
X154499500Y-90624500D01*
X154499500Y-109375500D01*
X154479815Y-109442539D01*
X154427011Y-109488294D01*
X154375500Y-109499500D01*
X100624500Y-109499500D01*
X100557461Y-109479815D01*
X100511706Y-109427011D01*
X100500500Y-109375500D01*
X100500500Y-105853952D01*
X112899500Y-105853952D01*
X112899500Y-106146047D01*
X112932199Y-106436271D01*
X112932202Y-106436285D01*
X112997196Y-106721044D01*
X112997197Y-106721046D01*
X113093665Y-106996738D01*
X113220393Y-107259890D01*
X113220395Y-107259893D01*
X113375792Y-107507206D01*
X113557902Y-107735565D01*
X113764435Y-107942098D01*
X113992794Y-108124208D01*
X114240107Y-108279605D01*
X114503263Y-108406335D01*
X114778955Y-108502803D01*
X115063714Y-108567798D01*
X115063723Y-108567799D01*
X115063728Y-108567800D01*
X115257210Y-108589599D01*
X115353953Y-108600499D01*
X115353956Y-108600500D01*
X115353959Y-108600500D01*
X115646044Y-108600500D01*
X115646045Y-108600499D01*
X115794371Y-108583787D01*
X115936271Y-108567800D01*
X115936274Y-108567799D01*
X115936286Y-108567798D01*
X116221045Y-108502803D01*
X116496737Y-108406335D01*
X116759893Y-108279605D01*
X117007206Y-108124208D01*
X117235565Y-107942098D01*
X117442098Y-107735565D01*
X117624208Y-107507206D01*
X117779605Y-107259893D01*
X117906335Y-106996737D01*
X118002803Y-106721045D01*
X118067798Y-106436286D01*
X118100500Y-106146041D01*
X118100500Y-105853959D01*
X118067798Y-105563714D01*
X118002803Y-105278955D01*
X117906335Y-105003263D01*
X117779605Y-104740107D01*
X117624208Y-104492794D01*
X117442098Y-104264435D01*
X117235565Y-104057902D01*
X117007206Y-103875792D01*
X116836398Y-103768466D01*
X116759890Y-103720393D01*
X116496738Y-103593665D01*
X116221046Y-103497197D01*
X116221044Y-103497196D01*
X116001280Y-103447036D01*
X115936286Y-103432202D01*
X115936283Y-103432201D01*
X115936271Y-103432199D01*
X115646047Y-103399500D01*
X115646041Y-103399500D01*
X115353959Y-103399500D01*
X115353952Y-103399500D01*
X115063728Y-103432199D01*
X115063714Y-103432202D01*
X114778955Y-103497196D01*
X114778953Y-103497197D01*
X114503261Y-103593665D01*
X114240109Y-103720393D01*
X113992795Y-103875791D01*
X113764435Y-104057901D01*
X113557901Y-104264435D01*
X113375791Y-104492795D01*
X113220393Y-104740109D01*
X113093665Y-105003261D01*
X112997197Y-105278953D01*
X112997196Y-105278955D01*
X112932202Y-105563714D01*
X112932199Y-105563728D01*
X112899500Y-105853952D01*
X100500500Y-105853952D01*
X100500500Y-103749995D01*
X104089592Y-103749995D01*
X104089592Y-103750004D01*
X104109196Y-104011620D01*
X104109197Y-104011625D01*
X104167576Y-104267402D01*
X104167578Y-104267411D01*
X104167580Y-104267416D01*
X104263432Y-104511643D01*
X104394614Y-104738857D01*
X104526736Y-104904533D01*
X104558198Y-104943985D01*
X104739753Y-105112441D01*
X104750521Y-105122433D01*
X104967296Y-105270228D01*
X104967301Y-105270230D01*
X104967302Y-105270231D01*
X104967303Y-105270232D01*
X105092843Y-105330688D01*
X105203673Y-105384061D01*
X105203674Y-105384061D01*
X105203677Y-105384063D01*
X105454385Y-105461396D01*
X105713818Y-105500500D01*
X105976182Y-105500500D01*
X106235615Y-105461396D01*
X106486323Y-105384063D01*
X106704582Y-105278955D01*
X106722696Y-105270232D01*
X106722696Y-105270231D01*
X106722704Y-105270228D01*
X106939479Y-105122433D01*
X107131805Y-104943981D01*
X107295386Y-104738857D01*
X107426568Y-104511643D01*
X107522420Y-104267416D01*
X107580802Y-104011630D01*
X107580803Y-104011620D01*
X107600408Y-103750004D01*
X107600408Y-103749995D01*
X107580803Y-103488379D01*
X107580802Y-103488374D01*
X107580802Y-103488370D01*
X107522420Y-103232584D01*
X107426568Y-102988357D01*
X107295386Y-102761143D01*
X107131805Y-102556019D01*
X107131804Y-102556018D01*
X107131801Y-102556014D01*
X106939479Y-102377567D01*
X106722704Y-102229772D01*
X106722700Y-102229770D01*
X106722697Y-102229768D01*
X106722696Y-102229767D01*
X106486325Y-102115938D01*
X106486327Y-102115938D01*
X106235623Y-102038606D01*
X106235619Y-102038605D01*
X106235615Y-102038604D01*
X106110823Y-102019794D01*
X105976187Y-101999500D01*
X105976182Y-101999500D01*
X105713818Y-101999500D01*
X105713812Y-101999500D01*
X105552247Y-102023853D01*
X105454385Y-102038604D01*
X105454382Y-102038605D01*
X105454376Y-102038606D01*
X105203673Y-102115938D01*
X104967303Y-102229767D01*
X104967302Y-102229768D01*
X104750520Y-102377567D01*
X104558198Y-102556014D01*
X104394614Y-102761143D01*
X104263432Y-102988356D01*
X104167582Y-103232578D01*
X104167576Y-103232597D01*
X104109197Y-103488374D01*
X104109196Y-103488379D01*
X104089592Y-103749995D01*
X100500500Y-103749995D01*
X100500500Y-90624500D01*
X100520185Y-90557461D01*
X100572989Y-90511706D01*
X100624500Y-90500500D01*
X107285218Y-90500500D01*
X107352257Y-90520185D01*
G37*
%TD.AperFunction*%
%TD*%
M02*
