%TF.GenerationSoftware,KiCad,Pcbnew,8.0.2*%
%TF.CreationDate,2024-08-23T12:07:26+02:00*%
%TF.ProjectId,CurrentLimiter2,43757272-656e-4744-9c69-6d6974657232,rev?*%
%TF.SameCoordinates,Original*%
%TF.FileFunction,Copper,L1,Top*%
%TF.FilePolarity,Positive*%
%FSLAX46Y46*%
G04 Gerber Fmt 4.6, Leading zero omitted, Abs format (unit mm)*
G04 Created by KiCad (PCBNEW 8.0.2) date 2024-08-23 12:07:26*
%MOMM*%
%LPD*%
G01*
G04 APERTURE LIST*
G04 Aperture macros list*
%AMRoundRect*
0 Rectangle with rounded corners*
0 $1 Rounding radius*
0 $2 $3 $4 $5 $6 $7 $8 $9 X,Y pos of 4 corners*
0 Add a 4 corners polygon primitive as box body*
4,1,4,$2,$3,$4,$5,$6,$7,$8,$9,$2,$3,0*
0 Add four circle primitives for the rounded corners*
1,1,$1+$1,$2,$3*
1,1,$1+$1,$4,$5*
1,1,$1+$1,$6,$7*
1,1,$1+$1,$8,$9*
0 Add four rect primitives between the rounded corners*
20,1,$1+$1,$2,$3,$4,$5,0*
20,1,$1+$1,$4,$5,$6,$7,0*
20,1,$1+$1,$6,$7,$8,$9,0*
20,1,$1+$1,$8,$9,$2,$3,0*%
G04 Aperture macros list end*
%TA.AperFunction,SMDPad,CuDef*%
%ADD10RoundRect,0.249999X-1.075001X0.450001X-1.075001X-0.450001X1.075001X-0.450001X1.075001X0.450001X0*%
%TD*%
%TA.AperFunction,SMDPad,CuDef*%
%ADD11RoundRect,0.250000X-0.350000X0.850000X-0.350000X-0.850000X0.350000X-0.850000X0.350000X0.850000X0*%
%TD*%
%TA.AperFunction,SMDPad,CuDef*%
%ADD12RoundRect,0.250000X-1.125000X1.275000X-1.125000X-1.275000X1.125000X-1.275000X1.125000X1.275000X0*%
%TD*%
%TA.AperFunction,SMDPad,CuDef*%
%ADD13RoundRect,0.249997X-2.650003X2.950003X-2.650003X-2.950003X2.650003X-2.950003X2.650003X2.950003X0*%
%TD*%
%TA.AperFunction,ComponentPad*%
%ADD14R,2.500000X2.500000*%
%TD*%
%TA.AperFunction,ComponentPad*%
%ADD15C,2.500000*%
%TD*%
%TA.AperFunction,SMDPad,CuDef*%
%ADD16RoundRect,0.250000X0.350000X0.450000X-0.350000X0.450000X-0.350000X-0.450000X0.350000X-0.450000X0*%
%TD*%
%TA.AperFunction,SMDPad,CuDef*%
%ADD17RoundRect,0.250000X0.400000X0.625000X-0.400000X0.625000X-0.400000X-0.625000X0.400000X-0.625000X0*%
%TD*%
%TA.AperFunction,SMDPad,CuDef*%
%ADD18RoundRect,0.375000X0.375000X-0.625000X0.375000X0.625000X-0.375000X0.625000X-0.375000X-0.625000X0*%
%TD*%
%TA.AperFunction,SMDPad,CuDef*%
%ADD19RoundRect,0.500000X1.400000X-0.500000X1.400000X0.500000X-1.400000X0.500000X-1.400000X-0.500000X0*%
%TD*%
%TA.AperFunction,ViaPad*%
%ADD20C,0.600000*%
%TD*%
%TA.AperFunction,ViaPad*%
%ADD21C,1.000000*%
%TD*%
%TA.AperFunction,Conductor*%
%ADD22C,0.500000*%
%TD*%
%TA.AperFunction,Conductor*%
%ADD23C,1.000000*%
%TD*%
G04 APERTURE END LIST*
D10*
%TO.P,R3,1*%
%TO.N,Net-(R2-Pad2)*%
X122500000Y-92100000D03*
%TO.P,R3,2*%
%TO.N,Net-(J1-Pin_2)*%
X122500000Y-96900000D03*
%TD*%
D11*
%TO.P,Q2,1,B*%
%TO.N,Net-(Q1-C)*%
X135780000Y-95185000D03*
%TO.P,Q2,2,C*%
%TO.N,/Col*%
X133500000Y-95185000D03*
D12*
X135025000Y-99810000D03*
X131975000Y-99810000D03*
D13*
X133500000Y-101485000D03*
D12*
X135025000Y-103160000D03*
X131975000Y-103160000D03*
D11*
%TO.P,Q2,3,E*%
%TO.N,Net-(Q1-E)*%
X131220000Y-95185000D03*
%TD*%
D14*
%TO.P,J2,1,Pin_1*%
%TO.N,/Col*%
X149155000Y-103750000D03*
D15*
%TO.P,J2,2,Pin_2*%
%TO.N,Net-(J1-Pin_1)*%
X149155000Y-96250000D03*
%TD*%
D16*
%TO.P,R1,1*%
%TO.N,Net-(J1-Pin_1)*%
X141000000Y-93000000D03*
%TO.P,R1,2*%
%TO.N,Net-(Q1-C)*%
X139000000Y-93000000D03*
%TD*%
D14*
%TO.P,J1,1,Pin_1*%
%TO.N,Net-(J1-Pin_1)*%
X105845000Y-96250000D03*
D15*
%TO.P,J1,2,Pin_2*%
%TO.N,Net-(J1-Pin_2)*%
X105845000Y-103750000D03*
%TD*%
D17*
%TO.P,R2,1*%
%TO.N,Net-(Q1-E)*%
X129050000Y-93000000D03*
%TO.P,R2,2*%
%TO.N,Net-(R2-Pad2)*%
X125950000Y-93000000D03*
%TD*%
D18*
%TO.P,Q1,1,E*%
%TO.N,Net-(Q1-E)*%
X113200000Y-98650000D03*
%TO.P,Q1,2,C*%
%TO.N,Net-(Q1-C)*%
X115500000Y-98650000D03*
D19*
X115500000Y-92350000D03*
D18*
%TO.P,Q1,3,B*%
%TO.N,Net-(J1-Pin_2)*%
X117800000Y-98650000D03*
%TD*%
D20*
%TO.N,Net-(Q1-E)*%
X112500000Y-100500000D03*
X129000000Y-95000000D03*
%TO.N,Net-(Q1-C)*%
X111500000Y-92500000D03*
X116000000Y-96500000D03*
D21*
%TO.N,/Col*%
X132000000Y-97500000D03*
X132000000Y-106000000D03*
X141000000Y-109000000D03*
X126000000Y-106000000D03*
X132000000Y-103000000D03*
X141000000Y-100000000D03*
X129000000Y-109000000D03*
X129000000Y-103000000D03*
X135000000Y-103000000D03*
X138000000Y-109000000D03*
X138000000Y-100000000D03*
X126000000Y-100000000D03*
X135000000Y-109000000D03*
X132000000Y-100000000D03*
X135000000Y-100000000D03*
X141000000Y-106000000D03*
X126000000Y-109000000D03*
X138000000Y-106000000D03*
X129000000Y-106000000D03*
X141000000Y-103000000D03*
X129000000Y-100000000D03*
X135000000Y-97500000D03*
X126000000Y-103000000D03*
X126000000Y-97500000D03*
X129000000Y-97500000D03*
X132000000Y-109000000D03*
X138000000Y-97500000D03*
X135000000Y-106000000D03*
X138000000Y-103000000D03*
X141000000Y-97500000D03*
%TD*%
D22*
%TO.N,Net-(Q1-E)*%
X129000000Y-93050000D02*
X129050000Y-93000000D01*
X129000000Y-95000000D02*
X129000000Y-93050000D01*
X113200000Y-99800000D02*
X112500000Y-100500000D01*
X113200000Y-98650000D02*
X113200000Y-99800000D01*
%TO.N,Net-(Q1-C)*%
X115500000Y-97000000D02*
X115500000Y-98650000D01*
X116000000Y-96500000D02*
X115500000Y-97000000D01*
D23*
%TO.N,Net-(J1-Pin_2)*%
X105845000Y-100655000D02*
X105845000Y-103750000D01*
X118000000Y-94500000D02*
X112000000Y-94500000D01*
X112000000Y-94500000D02*
X105845000Y-100655000D01*
X120400000Y-96900000D02*
X118000000Y-94500000D01*
D22*
X118650000Y-98650000D02*
X120400000Y-96900000D01*
X117800000Y-98650000D02*
X118650000Y-98650000D01*
D23*
X122500000Y-96900000D02*
X120400000Y-96900000D01*
%TO.N,Net-(R2-Pad2)*%
X125050000Y-92100000D02*
X125950000Y-93000000D01*
X122500000Y-92100000D02*
X125050000Y-92100000D01*
%TO.N,Net-(Q1-E)*%
X130500000Y-93000000D02*
X129050000Y-93000000D01*
X131220000Y-93720000D02*
X130500000Y-93000000D01*
X131220000Y-95185000D02*
X131220000Y-93720000D01*
%TO.N,Net-(Q1-C)*%
X136215000Y-93000000D02*
X139000000Y-93000000D01*
X136040000Y-93175000D02*
X136215000Y-93000000D01*
%TO.N,Net-(J1-Pin_1)*%
X143000000Y-95000000D02*
X147905000Y-95000000D01*
X141000000Y-93000000D02*
X143000000Y-95000000D01*
X147905000Y-95000000D02*
X149155000Y-96250000D01*
%TO.N,Net-(Q1-C)*%
X135780000Y-93435000D02*
X136040000Y-93175000D01*
X135780000Y-95185000D02*
X135780000Y-93435000D01*
D22*
X117100000Y-90750000D02*
X115500000Y-92350000D01*
X111650000Y-92350000D02*
X115500000Y-92350000D01*
X136040000Y-93040000D02*
X133750000Y-90750000D01*
X133750000Y-90750000D02*
X117100000Y-90750000D01*
X111500000Y-92500000D02*
X111650000Y-92350000D01*
X136040000Y-93175000D02*
X136040000Y-93040000D01*
%TO.N,Net-(J1-Pin_2)*%
X118000000Y-98850000D02*
X117800000Y-98650000D01*
%TD*%
%TA.AperFunction,Conductor*%
%TO.N,/Col*%
G36*
X116055808Y-90520185D02*
G01*
X116101563Y-90572989D01*
X116111507Y-90642147D01*
X116082482Y-90705703D01*
X116076450Y-90712181D01*
X115975450Y-90813181D01*
X115914127Y-90846666D01*
X115887769Y-90849500D01*
X114041971Y-90849500D01*
X114041965Y-90849500D01*
X114041964Y-90849501D01*
X114030316Y-90850536D01*
X113922584Y-90860113D01*
X113726954Y-90916089D01*
X113636772Y-90963196D01*
X113546593Y-91010302D01*
X113546591Y-91010303D01*
X113546590Y-91010304D01*
X113388890Y-91138890D01*
X113260304Y-91296590D01*
X113166088Y-91476956D01*
X113156744Y-91509613D01*
X113119376Y-91568651D01*
X113056022Y-91598113D01*
X113037529Y-91599500D01*
X111576080Y-91599500D01*
X111431092Y-91628340D01*
X111431082Y-91628343D01*
X111294509Y-91684913D01*
X111280258Y-91694436D01*
X111280257Y-91694436D01*
X111185365Y-91757839D01*
X111157436Y-91771776D01*
X111150482Y-91774209D01*
X111150478Y-91774211D01*
X110997737Y-91870184D01*
X110870184Y-91997737D01*
X110774211Y-92150476D01*
X110714631Y-92320745D01*
X110714630Y-92320750D01*
X110694435Y-92499996D01*
X110694435Y-92500003D01*
X110714630Y-92679249D01*
X110714631Y-92679254D01*
X110774211Y-92849523D01*
X110804677Y-92898009D01*
X110870184Y-93002262D01*
X110997738Y-93129816D01*
X111088080Y-93186582D01*
X111146107Y-93223043D01*
X111150478Y-93225789D01*
X111260879Y-93264420D01*
X111320745Y-93285368D01*
X111320750Y-93285369D01*
X111499996Y-93305565D01*
X111500000Y-93305565D01*
X111500004Y-93305565D01*
X111679249Y-93285369D01*
X111679252Y-93285368D01*
X111679255Y-93285368D01*
X111849522Y-93225789D01*
X112002262Y-93129816D01*
X112002267Y-93129810D01*
X112005097Y-93127555D01*
X112007275Y-93126665D01*
X112008158Y-93126111D01*
X112008255Y-93126265D01*
X112069783Y-93101145D01*
X112082412Y-93100500D01*
X113037529Y-93100500D01*
X113104568Y-93120185D01*
X113150323Y-93172989D01*
X113156744Y-93190387D01*
X113166088Y-93223043D01*
X113166090Y-93223048D01*
X113166091Y-93223049D01*
X113215736Y-93318090D01*
X113229327Y-93386623D01*
X113203708Y-93451627D01*
X113147013Y-93492460D01*
X113105827Y-93499500D01*
X111901456Y-93499500D01*
X111708171Y-93537947D01*
X111708163Y-93537949D01*
X111652251Y-93561109D01*
X111652250Y-93561109D01*
X111526092Y-93613364D01*
X111526077Y-93613372D01*
X111489549Y-93637781D01*
X111489547Y-93637782D01*
X111362222Y-93722857D01*
X111362214Y-93722863D01*
X107807180Y-97277898D01*
X107745857Y-97311383D01*
X107676165Y-97306399D01*
X107620232Y-97264527D01*
X107595815Y-97199063D01*
X107595499Y-97190217D01*
X107595499Y-94952129D01*
X107595498Y-94952123D01*
X107595497Y-94952116D01*
X107589091Y-94892517D01*
X107538796Y-94757669D01*
X107538795Y-94757668D01*
X107538793Y-94757664D01*
X107452547Y-94642455D01*
X107452544Y-94642452D01*
X107337335Y-94556206D01*
X107337328Y-94556202D01*
X107202482Y-94505908D01*
X107202483Y-94505908D01*
X107142883Y-94499501D01*
X107142881Y-94499500D01*
X107142873Y-94499500D01*
X107142864Y-94499500D01*
X104547129Y-94499500D01*
X104547123Y-94499501D01*
X104487516Y-94505908D01*
X104352671Y-94556202D01*
X104352664Y-94556206D01*
X104237455Y-94642452D01*
X104237452Y-94642455D01*
X104151206Y-94757664D01*
X104151202Y-94757671D01*
X104100908Y-94892517D01*
X104094501Y-94952116D01*
X104094501Y-94952123D01*
X104094500Y-94952135D01*
X104094500Y-97547870D01*
X104094501Y-97547876D01*
X104100908Y-97607483D01*
X104151202Y-97742328D01*
X104151206Y-97742335D01*
X104237452Y-97857544D01*
X104237455Y-97857547D01*
X104352664Y-97943793D01*
X104352671Y-97943797D01*
X104487517Y-97994091D01*
X104487516Y-97994091D01*
X104494444Y-97994835D01*
X104547127Y-98000500D01*
X106785217Y-98000499D01*
X106852256Y-98020184D01*
X106898011Y-98072987D01*
X106907955Y-98142146D01*
X106878930Y-98205702D01*
X106872898Y-98212180D01*
X105852129Y-99232950D01*
X105207220Y-99877859D01*
X105207218Y-99877861D01*
X105137538Y-99947540D01*
X105067859Y-100017219D01*
X104958371Y-100181079D01*
X104958364Y-100181092D01*
X104882950Y-100363160D01*
X104882947Y-100363170D01*
X104844500Y-100556456D01*
X104844500Y-102247956D01*
X104824815Y-102314995D01*
X104790354Y-102350408D01*
X104750523Y-102377565D01*
X104558198Y-102556014D01*
X104394614Y-102761143D01*
X104263432Y-102988356D01*
X104167582Y-103232578D01*
X104167576Y-103232597D01*
X104109197Y-103488374D01*
X104109196Y-103488379D01*
X104089592Y-103749995D01*
X104089592Y-103750004D01*
X104109196Y-104011620D01*
X104109197Y-104011625D01*
X104167576Y-104267402D01*
X104167578Y-104267411D01*
X104167580Y-104267416D01*
X104263432Y-104511643D01*
X104394614Y-104738857D01*
X104526736Y-104904533D01*
X104558198Y-104943985D01*
X104739753Y-105112441D01*
X104750521Y-105122433D01*
X104967296Y-105270228D01*
X104967301Y-105270230D01*
X104967302Y-105270231D01*
X104967303Y-105270232D01*
X105092843Y-105330688D01*
X105203673Y-105384061D01*
X105203674Y-105384061D01*
X105203677Y-105384063D01*
X105454385Y-105461396D01*
X105713818Y-105500500D01*
X105976182Y-105500500D01*
X106235615Y-105461396D01*
X106486323Y-105384063D01*
X106704582Y-105278955D01*
X106722696Y-105270232D01*
X106722696Y-105270231D01*
X106722704Y-105270228D01*
X106939479Y-105122433D01*
X107131805Y-104943981D01*
X107295386Y-104738857D01*
X107426568Y-104511643D01*
X107522420Y-104267416D01*
X107580802Y-104011630D01*
X107580803Y-104011620D01*
X107600408Y-103750004D01*
X107600408Y-103749995D01*
X107580803Y-103488379D01*
X107580802Y-103488374D01*
X107580802Y-103488370D01*
X107522420Y-103232584D01*
X107426568Y-102988357D01*
X107295386Y-102761143D01*
X107131805Y-102556019D01*
X107131804Y-102556018D01*
X107131801Y-102556014D01*
X107012204Y-102445046D01*
X106939479Y-102377567D01*
X106938064Y-102376602D01*
X106899646Y-102350408D01*
X106855345Y-102296378D01*
X106845500Y-102247956D01*
X106845500Y-101120782D01*
X106865185Y-101053743D01*
X106881819Y-101033101D01*
X112378102Y-95536819D01*
X112439425Y-95503334D01*
X112465783Y-95500500D01*
X115702886Y-95500500D01*
X115769925Y-95520185D01*
X115815680Y-95572989D01*
X115825624Y-95642147D01*
X115796599Y-95705703D01*
X115743840Y-95741542D01*
X115650478Y-95774210D01*
X115497737Y-95870184D01*
X115370184Y-95997737D01*
X115274211Y-96150478D01*
X115271188Y-96156756D01*
X115269362Y-96155876D01*
X115246694Y-96191937D01*
X114917047Y-96521585D01*
X114882080Y-96573916D01*
X114882081Y-96573917D01*
X114834913Y-96644508D01*
X114778343Y-96781082D01*
X114778340Y-96781092D01*
X114749500Y-96926079D01*
X114749500Y-97157057D01*
X114729815Y-97224096D01*
X114680595Y-97268145D01*
X114650704Y-97282969D01*
X114502278Y-97402277D01*
X114502277Y-97402278D01*
X114446647Y-97471486D01*
X114389304Y-97511405D01*
X114319482Y-97513985D01*
X114259349Y-97478406D01*
X114253353Y-97471486D01*
X114197722Y-97402278D01*
X114197721Y-97402277D01*
X114049295Y-97282969D01*
X114049292Y-97282967D01*
X113878697Y-97198360D01*
X113693892Y-97152400D01*
X113672506Y-97150950D01*
X113651123Y-97149500D01*
X113651120Y-97149500D01*
X112748877Y-97149500D01*
X112748874Y-97149501D01*
X112706113Y-97152399D01*
X112706112Y-97152399D01*
X112521303Y-97198360D01*
X112350707Y-97282967D01*
X112350704Y-97282969D01*
X112202278Y-97402277D01*
X112202277Y-97402278D01*
X112082969Y-97550704D01*
X112082967Y-97550707D01*
X111998360Y-97721302D01*
X111952400Y-97906107D01*
X111950466Y-97934621D01*
X111949845Y-97943797D01*
X111949500Y-97948879D01*
X111949500Y-99351122D01*
X111949501Y-99351125D01*
X111952399Y-99393886D01*
X111952399Y-99393887D01*
X111998359Y-99578694D01*
X112058616Y-99700190D01*
X112070768Y-99768995D01*
X112043792Y-99833447D01*
X112013503Y-99860277D01*
X111997740Y-99870181D01*
X111870184Y-99997737D01*
X111774211Y-100150476D01*
X111714631Y-100320745D01*
X111714630Y-100320750D01*
X111694435Y-100499996D01*
X111694435Y-100500003D01*
X111714630Y-100679249D01*
X111714631Y-100679254D01*
X111774211Y-100849523D01*
X111870184Y-101002262D01*
X111997738Y-101129816D01*
X112150478Y-101225789D01*
X112320745Y-101285368D01*
X112320750Y-101285369D01*
X112499996Y-101305565D01*
X112500000Y-101305565D01*
X112500004Y-101305565D01*
X112679249Y-101285369D01*
X112679252Y-101285368D01*
X112679255Y-101285368D01*
X112849522Y-101225789D01*
X113002262Y-101129816D01*
X113129816Y-101002262D01*
X113225789Y-100849522D01*
X113225792Y-100849510D01*
X113228810Y-100843248D01*
X113230650Y-100844134D01*
X113253305Y-100808061D01*
X113782951Y-100278416D01*
X113865084Y-100155495D01*
X113871839Y-100139183D01*
X113915679Y-100084780D01*
X113931308Y-100075546D01*
X114049296Y-100017030D01*
X114073296Y-99997738D01*
X114197722Y-99897722D01*
X114253353Y-99828514D01*
X114310696Y-99788595D01*
X114380518Y-99786015D01*
X114440651Y-99821594D01*
X114446647Y-99828514D01*
X114502277Y-99897721D01*
X114502278Y-99897722D01*
X114650704Y-100017030D01*
X114650707Y-100017032D01*
X114821302Y-100101639D01*
X114821303Y-100101639D01*
X114821307Y-100101641D01*
X115006111Y-100147600D01*
X115048877Y-100150500D01*
X115951122Y-100150499D01*
X115993889Y-100147600D01*
X116178693Y-100101641D01*
X116349296Y-100017030D01*
X116497722Y-99897722D01*
X116553353Y-99828514D01*
X116610696Y-99788595D01*
X116680518Y-99786015D01*
X116740651Y-99821594D01*
X116746647Y-99828514D01*
X116802277Y-99897721D01*
X116802278Y-99897722D01*
X116950704Y-100017030D01*
X116950707Y-100017032D01*
X117121302Y-100101639D01*
X117121303Y-100101639D01*
X117121307Y-100101641D01*
X117306111Y-100147600D01*
X117348877Y-100150500D01*
X118251122Y-100150499D01*
X118293889Y-100147600D01*
X118478693Y-100101641D01*
X118649296Y-100017030D01*
X118797722Y-99897722D01*
X118917030Y-99749296D01*
X119001641Y-99578693D01*
X119047600Y-99393889D01*
X119050500Y-99351123D01*
X119050500Y-99351114D01*
X119050571Y-99349027D01*
X119050641Y-99349029D01*
X119050642Y-99349026D01*
X119050742Y-99349032D01*
X119051175Y-99349047D01*
X119070149Y-99284307D01*
X119105610Y-99248189D01*
X119128416Y-99232952D01*
X120424549Y-97936819D01*
X120485872Y-97903334D01*
X120512230Y-97900500D01*
X120862770Y-97900500D01*
X120929809Y-97920185D01*
X120950451Y-97936819D01*
X120956344Y-97942712D01*
X121105665Y-98034814D01*
X121272202Y-98089999D01*
X121374990Y-98100500D01*
X121374995Y-98100500D01*
X123625005Y-98100500D01*
X123625010Y-98100500D01*
X123727798Y-98089999D01*
X123894335Y-98034814D01*
X124043656Y-97942712D01*
X124167712Y-97818656D01*
X124259814Y-97669335D01*
X124314999Y-97502798D01*
X124325500Y-97400010D01*
X124325500Y-96399990D01*
X124314999Y-96297202D01*
X124259814Y-96130665D01*
X124167712Y-95981344D01*
X124043656Y-95857288D01*
X123908967Y-95774211D01*
X123894337Y-95765187D01*
X123894332Y-95765185D01*
X123892863Y-95764698D01*
X123727798Y-95710001D01*
X123727796Y-95710000D01*
X123625017Y-95699500D01*
X123625010Y-95699500D01*
X121374990Y-95699500D01*
X121374982Y-95699500D01*
X121272203Y-95710000D01*
X121272202Y-95710001D01*
X121258227Y-95714632D01*
X121105667Y-95765185D01*
X121105662Y-95765187D01*
X120956343Y-95857288D01*
X120951953Y-95861679D01*
X120890628Y-95895161D01*
X120820936Y-95890172D01*
X120776595Y-95861674D01*
X118784209Y-93869289D01*
X118784206Y-93869285D01*
X118784206Y-93869286D01*
X118777139Y-93862219D01*
X118777139Y-93862218D01*
X118637782Y-93722861D01*
X118637781Y-93722860D01*
X118637780Y-93722859D01*
X118473920Y-93613371D01*
X118473911Y-93613366D01*
X118390683Y-93578892D01*
X118345165Y-93560038D01*
X118318500Y-93548993D01*
X118291837Y-93537949D01*
X118291833Y-93537948D01*
X118193637Y-93518416D01*
X118161938Y-93512110D01*
X118098543Y-93499500D01*
X118098541Y-93499500D01*
X117894173Y-93499500D01*
X117827134Y-93479815D01*
X117781379Y-93427011D01*
X117771435Y-93357853D01*
X117784262Y-93318092D01*
X117833909Y-93223049D01*
X117889886Y-93027418D01*
X117900500Y-92908037D01*
X117900499Y-91791964D01*
X117889886Y-91672582D01*
X117885888Y-91658609D01*
X117886371Y-91588743D01*
X117924551Y-91530228D01*
X117988306Y-91501643D01*
X118005104Y-91500500D01*
X120550500Y-91500500D01*
X120617539Y-91520185D01*
X120663294Y-91572989D01*
X120674500Y-91624500D01*
X120674500Y-92600017D01*
X120685000Y-92702796D01*
X120685001Y-92702798D01*
X120740186Y-92869335D01*
X120832288Y-93018656D01*
X120956344Y-93142712D01*
X121105665Y-93234814D01*
X121272202Y-93289999D01*
X121374990Y-93300500D01*
X121374995Y-93300500D01*
X123625005Y-93300500D01*
X123625010Y-93300500D01*
X123727798Y-93289999D01*
X123894335Y-93234814D01*
X124043656Y-93142712D01*
X124049549Y-93136819D01*
X124110872Y-93103334D01*
X124137230Y-93100500D01*
X124584218Y-93100500D01*
X124651257Y-93120185D01*
X124671899Y-93136819D01*
X124763181Y-93228101D01*
X124796666Y-93289424D01*
X124799500Y-93315782D01*
X124799500Y-93675001D01*
X124799501Y-93675019D01*
X124810000Y-93777796D01*
X124810001Y-93777799D01*
X124856677Y-93918656D01*
X124865186Y-93944334D01*
X124957288Y-94093656D01*
X125081344Y-94217712D01*
X125230666Y-94309814D01*
X125397203Y-94364999D01*
X125499991Y-94375500D01*
X126400008Y-94375499D01*
X126400016Y-94375498D01*
X126400019Y-94375498D01*
X126487525Y-94366559D01*
X126502797Y-94364999D01*
X126669334Y-94309814D01*
X126818656Y-94217712D01*
X126942712Y-94093656D01*
X127034814Y-93944334D01*
X127089999Y-93777797D01*
X127100500Y-93675009D01*
X127100499Y-92324992D01*
X127089999Y-92222203D01*
X127034814Y-92055666D01*
X126942712Y-91906344D01*
X126818656Y-91782288D01*
X126733945Y-91730038D01*
X126687222Y-91678091D01*
X126675999Y-91609128D01*
X126703843Y-91545046D01*
X126761911Y-91506190D01*
X126799043Y-91500500D01*
X128200957Y-91500500D01*
X128267996Y-91520185D01*
X128313751Y-91572989D01*
X128323695Y-91642147D01*
X128294670Y-91705703D01*
X128266054Y-91730039D01*
X128181342Y-91782289D01*
X128057289Y-91906342D01*
X127965187Y-92055663D01*
X127965185Y-92055668D01*
X127946067Y-92113364D01*
X127910001Y-92222203D01*
X127910001Y-92222204D01*
X127910000Y-92222204D01*
X127899500Y-92324983D01*
X127899500Y-93675001D01*
X127899501Y-93675018D01*
X127910000Y-93777796D01*
X127910001Y-93777799D01*
X127956677Y-93918656D01*
X127965186Y-93944334D01*
X128057288Y-94093656D01*
X128181344Y-94217712D01*
X128190591Y-94223416D01*
X128237318Y-94275360D01*
X128249500Y-94328957D01*
X128249500Y-94700028D01*
X128242542Y-94740982D01*
X128214631Y-94820747D01*
X128194435Y-94999996D01*
X128194435Y-95000003D01*
X128214630Y-95179249D01*
X128214631Y-95179254D01*
X128274211Y-95349523D01*
X128361446Y-95488356D01*
X128370184Y-95502262D01*
X128497738Y-95629816D01*
X128510416Y-95637782D01*
X128632721Y-95714632D01*
X128650478Y-95725789D01*
X128763068Y-95765186D01*
X128820745Y-95785368D01*
X128820750Y-95785369D01*
X128999996Y-95805565D01*
X129000000Y-95805565D01*
X129000004Y-95805565D01*
X129179249Y-95785369D01*
X129179252Y-95785368D01*
X129179255Y-95785368D01*
X129349522Y-95725789D01*
X129502262Y-95629816D01*
X129629816Y-95502262D01*
X129725789Y-95349522D01*
X129785368Y-95179255D01*
X129785369Y-95179249D01*
X129805565Y-95000003D01*
X129805565Y-94999996D01*
X129785368Y-94820747D01*
X129785368Y-94820745D01*
X129757458Y-94740982D01*
X129750500Y-94700028D01*
X129750500Y-94390638D01*
X129770185Y-94323599D01*
X129809401Y-94285100D01*
X129918656Y-94217712D01*
X129918657Y-94217710D01*
X129924803Y-94213920D01*
X129925464Y-94214993D01*
X129983372Y-94191625D01*
X130052015Y-94204658D01*
X130102715Y-94252733D01*
X130119500Y-94315030D01*
X130119500Y-96085001D01*
X130119501Y-96085018D01*
X130130000Y-96187796D01*
X130130001Y-96187799D01*
X130174056Y-96320745D01*
X130185186Y-96354334D01*
X130277288Y-96503656D01*
X130401344Y-96627712D01*
X130550666Y-96719814D01*
X130717203Y-96774999D01*
X130819991Y-96785500D01*
X131620008Y-96785499D01*
X131620016Y-96785498D01*
X131620019Y-96785498D01*
X131676302Y-96779748D01*
X131722797Y-96774999D01*
X131889334Y-96719814D01*
X132038656Y-96627712D01*
X132162712Y-96503656D01*
X132254814Y-96354334D01*
X132309999Y-96187797D01*
X132320500Y-96085009D01*
X132320499Y-94284992D01*
X132314152Y-94222863D01*
X132309999Y-94182203D01*
X132309998Y-94182200D01*
X132287189Y-94113368D01*
X132254814Y-94015666D01*
X132244843Y-93999500D01*
X132238960Y-93989961D01*
X132220500Y-93924867D01*
X132220500Y-93621458D01*
X132220499Y-93621457D01*
X132196241Y-93499500D01*
X132182051Y-93428164D01*
X132144065Y-93336459D01*
X132135500Y-93315782D01*
X132106635Y-93246093D01*
X132106634Y-93246092D01*
X132106632Y-93246086D01*
X132008045Y-93098540D01*
X132008043Y-93098536D01*
X131997145Y-93082225D01*
X131997140Y-93082219D01*
X131284209Y-92369289D01*
X131284206Y-92369285D01*
X131284206Y-92369286D01*
X131277139Y-92362219D01*
X131277139Y-92362218D01*
X131137782Y-92222861D01*
X131137781Y-92222860D01*
X131137780Y-92222859D01*
X130973920Y-92113371D01*
X130973907Y-92113364D01*
X130834608Y-92055666D01*
X130791836Y-92037949D01*
X130791828Y-92037947D01*
X130608390Y-92001459D01*
X130608386Y-92001457D01*
X130608386Y-92001458D01*
X130598544Y-91999500D01*
X130598541Y-91999500D01*
X130169378Y-91999500D01*
X130102339Y-91979815D01*
X130063839Y-91940597D01*
X130042712Y-91906344D01*
X129918656Y-91782288D01*
X129833945Y-91730038D01*
X129787222Y-91678091D01*
X129775999Y-91609128D01*
X129803843Y-91545046D01*
X129861911Y-91506190D01*
X129899043Y-91500500D01*
X133387770Y-91500500D01*
X133454809Y-91520185D01*
X133475451Y-91536819D01*
X134836641Y-92898009D01*
X134870126Y-92959332D01*
X134865142Y-93029024D01*
X134863522Y-93033141D01*
X134842890Y-93082952D01*
X134834448Y-93103334D01*
X134818169Y-93142634D01*
X134818138Y-93142709D01*
X134817948Y-93143164D01*
X134817947Y-93143169D01*
X134779500Y-93336454D01*
X134779500Y-93924867D01*
X134761040Y-93989961D01*
X134745187Y-94015663D01*
X134745186Y-94015665D01*
X134724170Y-94079089D01*
X134690001Y-94182203D01*
X134690001Y-94182204D01*
X134690000Y-94182204D01*
X134679500Y-94284983D01*
X134679500Y-96085001D01*
X134679501Y-96085018D01*
X134690000Y-96187796D01*
X134690001Y-96187799D01*
X134734056Y-96320745D01*
X134745186Y-96354334D01*
X134837288Y-96503656D01*
X134961344Y-96627712D01*
X135110666Y-96719814D01*
X135277203Y-96774999D01*
X135379991Y-96785500D01*
X136180008Y-96785499D01*
X136180016Y-96785498D01*
X136180019Y-96785498D01*
X136236302Y-96779748D01*
X136282797Y-96774999D01*
X136449334Y-96719814D01*
X136598656Y-96627712D01*
X136722712Y-96503656D01*
X136814814Y-96354334D01*
X136869999Y-96187797D01*
X136880500Y-96085009D01*
X136880499Y-94284992D01*
X136874152Y-94222863D01*
X136869999Y-94182203D01*
X136869998Y-94182200D01*
X136863803Y-94163504D01*
X136861401Y-94093676D01*
X136897133Y-94033634D01*
X136959653Y-94002441D01*
X136981509Y-94000500D01*
X138087770Y-94000500D01*
X138154809Y-94020185D01*
X138175451Y-94036819D01*
X138181344Y-94042712D01*
X138330666Y-94134814D01*
X138497203Y-94189999D01*
X138599991Y-94200500D01*
X139400008Y-94200499D01*
X139400016Y-94200498D01*
X139400019Y-94200498D01*
X139486879Y-94191625D01*
X139502797Y-94189999D01*
X139669334Y-94134814D01*
X139818656Y-94042712D01*
X139912319Y-93949049D01*
X139973642Y-93915564D01*
X140043334Y-93920548D01*
X140087681Y-93949049D01*
X140181344Y-94042712D01*
X140330666Y-94134814D01*
X140497203Y-94189999D01*
X140599991Y-94200500D01*
X140734216Y-94200499D01*
X140801256Y-94220183D01*
X140821898Y-94236818D01*
X142219735Y-95634655D01*
X142219764Y-95634686D01*
X142362214Y-95777136D01*
X142362218Y-95777139D01*
X142526079Y-95886628D01*
X142526083Y-95886630D01*
X142526086Y-95886632D01*
X142649977Y-95937949D01*
X142708164Y-95962051D01*
X142801371Y-95980591D01*
X142840478Y-95988370D01*
X142901456Y-96000500D01*
X142901459Y-96000500D01*
X142901460Y-96000500D01*
X143098540Y-96000500D01*
X147284649Y-96000500D01*
X147351688Y-96020185D01*
X147397443Y-96072989D01*
X147408302Y-96133766D01*
X147399592Y-96249999D01*
X147399592Y-96250000D01*
X147419196Y-96511620D01*
X147419197Y-96511625D01*
X147477576Y-96767402D01*
X147477578Y-96767411D01*
X147477580Y-96767416D01*
X147573432Y-97011643D01*
X147704614Y-97238857D01*
X147833129Y-97400010D01*
X147868198Y-97443985D01*
X148044409Y-97607483D01*
X148060521Y-97622433D01*
X148277296Y-97770228D01*
X148277301Y-97770230D01*
X148277302Y-97770231D01*
X148277303Y-97770232D01*
X148377858Y-97818656D01*
X148513673Y-97884061D01*
X148513674Y-97884061D01*
X148513677Y-97884063D01*
X148764385Y-97961396D01*
X149023818Y-98000500D01*
X149286182Y-98000500D01*
X149545615Y-97961396D01*
X149796323Y-97884063D01*
X150032704Y-97770228D01*
X150249479Y-97622433D01*
X150441805Y-97443981D01*
X150605386Y-97238857D01*
X150736568Y-97011643D01*
X150832420Y-96767416D01*
X150890802Y-96511630D01*
X150890803Y-96511620D01*
X150910408Y-96250004D01*
X150910408Y-96249995D01*
X150890803Y-95988379D01*
X150890802Y-95988374D01*
X150890802Y-95988370D01*
X150832420Y-95732584D01*
X150736568Y-95488357D01*
X150605386Y-95261143D01*
X150441805Y-95056019D01*
X150441804Y-95056018D01*
X150441801Y-95056014D01*
X150249479Y-94877567D01*
X150032704Y-94729772D01*
X150032700Y-94729770D01*
X150032697Y-94729768D01*
X150032696Y-94729767D01*
X149796325Y-94615938D01*
X149796327Y-94615938D01*
X149545623Y-94538606D01*
X149545619Y-94538605D01*
X149545615Y-94538604D01*
X149420823Y-94519794D01*
X149286187Y-94499500D01*
X149286182Y-94499500D01*
X149023818Y-94499500D01*
X149023812Y-94499500D01*
X148908092Y-94516943D01*
X148838867Y-94507470D01*
X148801929Y-94482009D01*
X148686479Y-94366559D01*
X148686459Y-94366537D01*
X148542785Y-94222863D01*
X148542781Y-94222860D01*
X148378920Y-94113371D01*
X148378911Y-94113366D01*
X148295683Y-94078892D01*
X148250165Y-94060038D01*
X148223500Y-94048993D01*
X148196837Y-94037949D01*
X148196833Y-94037948D01*
X148084812Y-94015666D01*
X148057721Y-94010277D01*
X148003543Y-93999500D01*
X148003541Y-93999500D01*
X143465782Y-93999500D01*
X143398743Y-93979815D01*
X143378101Y-93963181D01*
X142136818Y-92721898D01*
X142103333Y-92660575D01*
X142100499Y-92634217D01*
X142100499Y-92499998D01*
X142100498Y-92499981D01*
X142089999Y-92397203D01*
X142089998Y-92397200D01*
X142078406Y-92362218D01*
X142034814Y-92230666D01*
X141942712Y-92081344D01*
X141818656Y-91957288D01*
X141669334Y-91865186D01*
X141502797Y-91810001D01*
X141502795Y-91810000D01*
X141400010Y-91799500D01*
X140599998Y-91799500D01*
X140599980Y-91799501D01*
X140497203Y-91810000D01*
X140497200Y-91810001D01*
X140330668Y-91865185D01*
X140330663Y-91865187D01*
X140181342Y-91957289D01*
X140087681Y-92050951D01*
X140026358Y-92084436D01*
X139956666Y-92079452D01*
X139912319Y-92050951D01*
X139818657Y-91957289D01*
X139818656Y-91957288D01*
X139669334Y-91865186D01*
X139502797Y-91810001D01*
X139502795Y-91810000D01*
X139400010Y-91799500D01*
X138599998Y-91799500D01*
X138599980Y-91799501D01*
X138497203Y-91810000D01*
X138497200Y-91810001D01*
X138330668Y-91865185D01*
X138330663Y-91865187D01*
X138181342Y-91957289D01*
X138175451Y-91963181D01*
X138114128Y-91996666D01*
X138087770Y-91999500D01*
X136112230Y-91999500D01*
X136045191Y-91979815D01*
X136024549Y-91963181D01*
X134773549Y-90712181D01*
X134740064Y-90650858D01*
X134745048Y-90581166D01*
X134786920Y-90525233D01*
X134852384Y-90500816D01*
X134861230Y-90500500D01*
X154375500Y-90500500D01*
X154442539Y-90520185D01*
X154488294Y-90572989D01*
X154499500Y-90624500D01*
X154499500Y-109375500D01*
X154479815Y-109442539D01*
X154427011Y-109488294D01*
X154375500Y-109499500D01*
X100624500Y-109499500D01*
X100557461Y-109479815D01*
X100511706Y-109427011D01*
X100500500Y-109375500D01*
X100500500Y-105853952D01*
X112899500Y-105853952D01*
X112899500Y-106146047D01*
X112932199Y-106436271D01*
X112932202Y-106436285D01*
X112997196Y-106721044D01*
X112997197Y-106721046D01*
X113093665Y-106996738D01*
X113220393Y-107259890D01*
X113220395Y-107259893D01*
X113375792Y-107507206D01*
X113557902Y-107735565D01*
X113764435Y-107942098D01*
X113992794Y-108124208D01*
X114240107Y-108279605D01*
X114503263Y-108406335D01*
X114778955Y-108502803D01*
X115063714Y-108567798D01*
X115063723Y-108567799D01*
X115063728Y-108567800D01*
X115257210Y-108589599D01*
X115353953Y-108600499D01*
X115353956Y-108600500D01*
X115353959Y-108600500D01*
X115646044Y-108600500D01*
X115646045Y-108600499D01*
X115794371Y-108583787D01*
X115936271Y-108567800D01*
X115936274Y-108567799D01*
X115936286Y-108567798D01*
X116221045Y-108502803D01*
X116496737Y-108406335D01*
X116759893Y-108279605D01*
X117007206Y-108124208D01*
X117235565Y-107942098D01*
X117442098Y-107735565D01*
X117624208Y-107507206D01*
X117779605Y-107259893D01*
X117906335Y-106996737D01*
X118002803Y-106721045D01*
X118067798Y-106436286D01*
X118100500Y-106146041D01*
X118100500Y-105853959D01*
X118067798Y-105563714D01*
X118002803Y-105278955D01*
X117906335Y-105003263D01*
X117779605Y-104740107D01*
X117624208Y-104492794D01*
X117442098Y-104264435D01*
X117235565Y-104057902D01*
X117007206Y-103875792D01*
X116836398Y-103768466D01*
X116759890Y-103720393D01*
X116496738Y-103593665D01*
X116221046Y-103497197D01*
X116221044Y-103497196D01*
X116001280Y-103447036D01*
X115936286Y-103432202D01*
X115936283Y-103432201D01*
X115936271Y-103432199D01*
X115646047Y-103399500D01*
X115646041Y-103399500D01*
X115353959Y-103399500D01*
X115353952Y-103399500D01*
X115063728Y-103432199D01*
X115063714Y-103432202D01*
X114778955Y-103497196D01*
X114778953Y-103497197D01*
X114503261Y-103593665D01*
X114240109Y-103720393D01*
X113992795Y-103875791D01*
X113764435Y-104057901D01*
X113557901Y-104264435D01*
X113375791Y-104492795D01*
X113220393Y-104740109D01*
X113093665Y-105003261D01*
X112997197Y-105278953D01*
X112997196Y-105278955D01*
X112932202Y-105563714D01*
X112932199Y-105563728D01*
X112899500Y-105853952D01*
X100500500Y-105853952D01*
X100500500Y-90624500D01*
X100520185Y-90557461D01*
X100572989Y-90511706D01*
X100624500Y-90500500D01*
X115988769Y-90500500D01*
X116055808Y-90520185D01*
G37*
%TD.AperFunction*%
%TD*%
M02*
