M48
; DRILL file {KiCad 8.0.2} date 2024-08-23T15:35:15+0200
; FORMAT={-:-/ absolute / inch / decimal}
; #@! TF.CreationDate,2024-08-23T15:35:15+02:00
; #@! TF.GenerationSoftware,Kicad,Pcbnew,8.0.2
; #@! TF.FileFunction,Plated,1,2,PTH
FMAT,2
INCH
; #@! TA.AperFunction,Plated,PTH,ViaDrill
T1C0.0118
; #@! TA.AperFunction,Plated,PTH,ViaDrill
T2C0.0197
; #@! TA.AperFunction,Plated,PTH,ComponentDrill
T3C0.0512
%
G90
G05
T1
X4.3898Y-3.6417
X4.4291Y-3.9567
X4.5669Y-3.7992
X5.0787Y-3.7402
T2
X4.9606Y-3.8386
X4.9606Y-3.937
X4.9606Y-4.0551
X4.9606Y-4.1732
X4.9606Y-4.2913
X5.0787Y-3.8386
X5.0787Y-3.937
X5.0787Y-4.0551
X5.0787Y-4.1732
X5.0787Y-4.2913
X5.1969Y-3.8386
X5.1969Y-3.937
X5.1969Y-4.0551
X5.1969Y-4.1732
X5.1969Y-4.2913
X5.315Y-3.8386
X5.315Y-3.937
X5.315Y-4.0551
X5.315Y-4.1732
X5.315Y-4.2913
X5.4331Y-3.8386
X5.4331Y-3.937
X5.4331Y-4.0551
X5.4331Y-4.1732
X5.4331Y-4.2913
X5.5512Y-3.8386
X5.5512Y-3.937
X5.5512Y-4.0551
X5.5512Y-4.1732
X5.5512Y-4.2913
T3
X4.1671Y-3.7894
X4.1671Y-4.0846
X5.8722Y-3.7894
X5.8722Y-4.0846
M30
